<svg id="serv-p" xmlns="http://www.w3.org/2000/svg" width="1435" height="246" viewBox="0 0 1435 246">
  <title>wave__page</title>
  <path d="M1027.64,130.7c492.73-24.41,567.36,393.11,513.64,110.37S1606-329,1606-329l-496.13-56.29L595.13-443.7-132.7-526.28-154.51-334l-21.87,192.75s73.94,10.14-21,185.06S71.77,22.26,276.7,45.51,534.9,155.11,1027.64,130.7Z" style="fill: #e4f5f2"/>
  <path d="M1023.07,70.51C1514,21.6,1609.3,434.88,1541.57,155.17s36.2-572.61,36.2-572.61L1079.47-449l-517-32.66-731-46.18-12.22,193.08L-193-141.15s74.35,6.45-11.75,185.88S63,9.8,268.83,22.81,532.16,119.39,1023.07,70.51Z" style="fill: #dcefec"/>
  <path d="M1042.3,36.17c489.77-59.23,593.77,352,520.17,73.72s24.15-573.24,24.15-573.24l-498.87-21-517.54-21.8L-161.64-537l-8.14,193.33L-178-149.84s74.52,4.84-7.79,186.09S81.15-4.31,287.21,4.37,552.53,95.39,1042.3,36.17Z" style="fill: #fff"/>
</svg>
