<svg height="512pt" viewBox="-67 0 512 512.00002" width="512pt" xmlns="http://www.w3.org/2000/svg"><path d="m189.078125 0-20.015625 33 20.015625 30.734375c51.53125 0 93.453125 41.921875 93.453125 93.453125v126.761719h63.734375v-126.761719c0-86.8125-70.375-157.1875-157.1875-157.1875zm0 0" fill="#b4d2d7"/><path d="m189.078125 0c-86.8125 0-157.1875 70.375-157.1875 157.1875v22.945312h63.734375v-22.945312c0-51.53125 41.925781-93.453125 93.453125-93.453125zm0 0" fill="#e1ebf0"/><path d="m378.15625 243.917969h-189.078125l-20.015625 134.042969 20.015625 134.039062h189.078125zm0 0" fill="#ff9f22"/><path d="m0 243.917969h189.078125v268.082031h-189.078125zm0 0" fill="#ffda44"/><path d="m116.90625 463.972656-67.679688-86.015625 67.679688-86.015625 23.578125 18.554688-53.085937 67.460937 53.085937 67.464844zm0 0" fill="#0b799d"/><path d="m261.25 463.972656-23.574219-18.550781 53.085938-67.464844-53.085938-67.460937 23.574219-18.554688 67.683594 86.015625zm0 0" fill="#07485e"/><path d="m174.078125 291.984375h30v171.949219h-30zm0 0" fill="#0b799d"/></svg>