<svg height="512pt" viewBox="0 0 512 512" width="512pt" xmlns="http://www.w3.org/2000/svg"><path d="m480.105469 170.09375v-63.785156h-224.105469l-20.015625 83.800781zm0 0" fill="#87a0af"/><path d="m256 106.308594h-224.105469v63.785156l224.105469 20.015625zm0 0" fill="#b4d2d7"/><path d="m480.105469 170.09375h-224.105469l-20.015625 234.351562 244.121094-20.015624zm0 0" fill="#03232e"/><path d="m31.894531 170.09375v214.335938l224.105469 20.015624v-234.351562zm0 0" fill="#07485e"/><path d="m480.105469 384.429688h-224.105469l-20.015625 83.800781 244.121094-20.015625zm0 0" fill="#87a0af"/><path d="m31.894531 384.429688v63.785156l224.105469 20.015625v-83.800781zm0 0" fill="#b4d2d7"/><path d="m512 448.214844h-256l-20.015625 31.890625 20.015625 31.894531h256zm0 0" fill="#b4d2d7"/><path d="m0 448.214844h256v63.785156h-256zm0 0" fill="#e1ebf0"/><path d="m287.914062 0v90.839844h-31.914062l-20.015625 63.160156 20.015625 161.132812h42.550781v-116.175781c37.53125-16.449219 63.820313-53.949219 63.820313-97.480469 0-47.539062-31.347656-87.890624-74.457032-101.476562zm0 0" fill="#b4d2d7"/><path d="m224.085938 90.839844v-90.839844c-43.109376 13.585938-74.457032 53.9375-74.457032 101.476562 0 43.53125 26.289063 81.03125 63.820313 97.480469v116.175781h42.550781v-224.292968zm0 0" fill="#e1ebf0"/></svg>