<svg height="512pt" viewBox="0 0 512 512" width="512pt" xmlns="http://www.w3.org/2000/svg"><path d="m361.96875 256c0-58.429688-47.539062-105.96875-105.96875-105.96875l-20.015625 105.96875 20.015625 105.96875c58.429688 0 105.96875-47.539062 105.96875-105.96875zm0 0" fill="#87a0af"/><path d="m150.03125 256c0 58.429688 47.539062 105.96875 105.96875 105.96875v-211.9375c-58.429688 0-105.96875 47.539062-105.96875 105.96875zm0 0" fill="#b4d2d7"/><path d="m467.78125 202.316406c-5.230469-20.695312-13.417969-40.210937-24.082031-58.082031l16.484375-46.089844-46.328125-46.328125-46.089844 16.484375c-17.871094-10.664062-37.386719-18.851562-58.082031-24.082031l-20.925782-44.21875h-32.757812l-20.015625 59.386719 20.015625 41.910156c85.304688 0 154.703125 69.398437 154.703125 154.703125s-69.398437 154.703125-154.703125 154.703125l-20.015625 44.425781 20.015625 56.871094h32.757812l20.925782-44.21875c20.695312-5.230469 40.210937-13.417969 58.082031-24.082031l46.089844 16.484375 46.328125-46.328125-16.484375-46.089844c10.664062-17.871094 18.851562-37.386719 24.082031-58.082031l44.21875-20.925782v-65.515624zm0 0" fill="#b4d2d7"/><path d="m101.296875 256c0-85.304688 69.398437-154.703125 154.703125-154.703125v-101.296875h-32.757812l-20.925782 44.21875c-20.695312 5.230469-40.210937 13.417969-58.082031 24.082031l-46.089844-16.484375-46.328125 46.328125 16.484375 46.089844c-10.664062 17.871094-18.851562 37.386719-24.082031 58.082031l-44.21875 20.925782v65.515624l44.21875 20.921876c5.230469 20.699218 13.417969 40.214843 24.082031 58.085937l-16.484375 46.089844 46.328125 46.324219 46.089844-16.480469c17.871094 10.664062 37.386719 18.851562 58.082031 24.082031l20.925782 44.21875h32.757812v-101.296875c-85.304688 0-154.703125-69.398437-154.703125-154.703125zm0 0" fill="#e1ebf0"/></svg>