<svg height="512pt" viewBox="-84 0 512 512" width="512pt" xmlns="http://www.w3.org/2000/svg"><path d="m171.726562.00390625-20.015624 203.66406275 20.015624 180.761719h90.644532v-.253907c0-36.449219 13.78125-71.367187 37.949218-98.652343 26.835938-30.296876 43.128907-70.140626 43.128907-113.796876 0-94.84375-76.882813-171.72265575-171.722657-171.72265575zm0 0" fill="#ff9f22"/><path d="m171.726562.00390625c-.113281 0-.222656-.00390625-.335937-.00390625-94.453125.179688-171.515625 77.507812-171.390625 171.960938.0585938 43.664062 16.417969 83.503906 43.316406 113.773437 24.027344 27.035156 37.765625 61.664063 37.765625 97.832031v.863282h90.644531zm0 0" fill="#ffda44"/><path d="m235.511719 155.949219c-25.859375 0-46.894531 21.035156-46.894531 46.890625 0 5.957031 1.128906 11.648437 3.160156 16.894531h-40.105469c2.035156-5.246094 3.160156-10.9375 3.160156-16.894531 0-25.855469-21.035156-46.890625-46.890625-46.890625-25.859375 0-46.894531 21.035156-46.894531 46.890625 0 25.859375 21.035156 46.894531 46.894531 46.894531h48.449219v154.710937h30v-154.710937h49.121094c25.855469 0 46.890625-21.039063 46.890625-46.894531 0-25.855469-21.035156-46.890625-46.890625-46.890625zm-127.570313 63.785156c-9.316406 0-16.894531-7.578125-16.894531-16.894531s7.578125-16.894532 16.894531-16.894532c9.3125 0 16.890625 7.578126 16.890625 16.894532s-7.578125 16.894531-16.890625 16.894531zm127.570313 0c-9.316407 0-16.894531-7.578125-16.894531-16.894531s7.578124-16.894532 16.894531-16.894532c9.3125 0 16.890625 7.578126 16.890625 16.894532s-7.578125 16.894531-16.890625 16.894531zm0 0" fill="#fff5f5"/><path d="m171.726562 512c32.445313 0 58.75-26.304688 58.75-58.75v-5.035156l-78.765624-20.015625zm0 0" fill="#87a0af"/><path d="m112.972656 453.25c0 32.445312 26.304688 58.75 58.753906 58.75v-83.800781l-58.753906 20.015625zm0 0" fill="#b4d2d7"/><path d="m171.726562 448.214844h90.644532v-63.785156h-90.644532l-20.015624 31.890624zm0 0" fill="#b4d2d7"/><path d="m81.082031 384.429688h90.644531v63.785156h-90.644531zm0 0" fill="#e1ebf0"/></svg>