<svg height="512pt" viewBox="0 -33 512 512" width="512pt" xmlns="http://www.w3.org/2000/svg"><path d="m256 0-20.015625 147.585938 276.015625-20.015626v-127.570312zm0 0" fill="#b4d2d7"/><path d="m256 0h-256v127.570312l256 20.015626zm0 0" fill="#e1ebf0"/><path d="m235.984375 426.480469 83.800781 20.015625h192.214844v-318.925782h-256zm0 0" fill="#03232e"/><path d="m0 127.570312v318.925782h192.214844l63.785156-20.015625v-298.910157zm0 0" fill="#07485e"/><path d="m47.839844 48.785156h31.890625v30h-31.890625zm0 0" fill="#ff3939"/><path d="m111.625 48.785156h31.894531v30h-31.894531zm0 0" fill="#ff9f22"/><path d="m175.410156 48.785156h31.894532v30h-31.894532zm0 0" fill="#15ccc2"/><path d="m319.785156 265.953125-83.800781-20.015625 35.015625 200.558594h48.785156zm0 0" fill="#ff9f22"/><path d="m192.214844 265.953125v180.542969h48.785156l15-200.558594zm0 0" fill="#ffda44"/><path d="m241 245.9375h30v200.558594h-30zm0 0" fill="#03232e"/><path d="m256 180.90625-20.015625 58.328125 20.015625 26.71875h63.785156zm0 0" fill="#efe2dd"/><path d="m192.214844 265.953125h63.785156v-85.046875zm0 0" fill="#fff5f5"/></svg>