<svg height="512pt" viewBox="-86 0 511 512" width="512pt" xmlns="http://www.w3.org/2000/svg"><path d="m340.175781 270.675781-154.839843-246.773437h-15l-20.015626 409.75 102.421876-20.015625zm0 0" fill="#b4d2d7"/><path d="m155.335938 23.90625-154.835938 246.769531 87.433594 142.960938 82.402344 20.015625v-409.75zm0 0" fill="#e1ebf0"/><path d="m185.335938 248.816406v-224.910156l-15-23.90625-15 23.90625v224.910156zm0 0" fill="#87a0af"/><path d="m252.742188 413.636719h-82.40625l-20.015626 49.183593 20.015626 49.179688h82.40625zm0 0" fill="#c78f2c"/><path d="m87.933594 413.636719h82.402344v98.363281h-82.402344zm0 0" fill="#e7c598"/><path d="m220.195312 276.382812c0-27.535156-22.320312-49.855468-49.859374-49.855468l-20.015626 49.855468 20.015626 49.859376c27.539062 0 49.859374-22.320313 49.859374-49.859376zm0 0" fill="#87a0af"/><path d="m170.335938 226.527344c-27.535157 0-49.855469 22.320312-49.855469 49.855468 0 27.539063 22.320312 49.859376 49.855469 49.859376zm0 0" fill="#b4d2d7"/></svg>