<svg height="512pt" viewBox="0 0 512 512" width="512pt" xmlns="http://www.w3.org/2000/svg"><path d="m341.046875 497v-63.785156l-105.0625-20.015625 20.015625 83.800781zm0 0" fill="#87a0af"/><path d="m170.953125 497h85.046875v-83.800781l-85.046875 20.015625zm0 0" fill="#b4d2d7"/><path d="m256 70.929688-20.015625 297.253906 276.015625-20.015625v-277.238281zm0 0" fill="#03232e"/><path d="m256 70.929688h-256v277.238281l256 20.015625zm0 0" fill="#07485e"/><path d="m388.886719 512v-30h-132.886719l-10.007812 15 10.007812 15zm0 0" fill="#b4d2d7"/><path d="m123.113281 482h132.886719v30h-132.886719zm0 0" fill="#e1ebf0"/><path d="m256 433.214844h256v-85.046875h-256l-20.015625 42.523437zm0 0" fill="#b4d2d7"/><path d="m0 348.167969h256v85.046875h-256zm0 0" fill="#e1ebf0"/><path d="m256 .00390625-20.015625 248.70703175 71.464844-20.015626v-10.636718c0-20.691406 7.824219-40.507813 21.539062-55.996094 15.234375-17.195312 24.484375-39.8125 24.484375-64.589844 0-53.832031-43.640625-97.46874975-97.472656-97.46874975zm0 0" fill="#ff9f22"/><path d="m256 .00390625c-.0625 0-.125-.00390625-.1875-.00390625-53.613281.101562-97.355469 43.992188-97.28125 97.605469.03125 24.78125 9.316406 47.394531 24.585938 64.574219 13.636718 15.347656 21.433593 35.003906 21.433593 55.53125v10.980468l51.449219 20.019532zm0 0" fill="#ffda44"/><path d="m256 290.609375h51.449219v-61.914063h-51.449219l-20.015625 30.957032zm0 0" fill="#b4d2d7"/><path d="m204.550781 228.695312h51.449219v61.914063h-51.449219zm0 0" fill="#e1ebf0"/></svg>