<svg height="512pt" viewBox="0 0 512.001 512" width="512pt" xmlns="http://www.w3.org/2000/svg"><path d="m127.859375 352.46875 88.363281 56.6875 277.207032-277.207031-56.6875-88.507813zm0 0" fill="#ff9f22"/><path d="m455.335938 56.664062-75.28125-38.09375-277.210938 277.210938 35.621094 77.753906zm0 0" fill="#ffda44"/><path d="m159.53125 352.46875 277.210938-277.207031" fill="#03232e"/><path d="m447.34375 43.4375 21.214844 21.214844-319.488282 319.488281-21.210937-21.214844zm0 0" fill="#07485e"/><path d="m493.429688 131.949219 18.570312-131.949219-54.996094 26.332031-20.261718 48.929688zm0 0" fill="#efe2dd"/><path d="m436.742188 75.261719 75.257812-75.261719-131.945312 18.570312zm0 0" fill="#fff5f5"/><path d="m71 397.820312 99.871094 56.6875 45.351562-45.351562-56.691406-56.6875zm0 0" fill="#b4d2d7"/><path d="m159.53125 352.46875-56.6875-56.6875-45.347656 45.347656 33.839844 79.539063zm0 0" fill="#e1ebf0"/><path d="m114.183594 397.820312-63.183594 17.003907-27.519531 73.695312c31.308593 31.308594 82.070312 31.308594 113.378906 0l34.011719-34.011719zm0 0" fill="#ff3939"/><path d="m57.496094 341.128906-34.015625 34.015625c-31.308594 31.308594-31.308594 82.066407 0 113.375l90.699219-90.699219zm0 0" fill="#ff8859"/></svg>