<svg height="512pt" viewBox="0 -34 512 512" width="512pt" xmlns="http://www.w3.org/2000/svg"><path d="m165.003906 141.253906 90.996094 303.230469zm0 0" fill="#5ecef4"/><path d="m346.996094 141.253906-90.996094 303.230469zm0 0" fill="#5ecef4"/><path d="m326.980469 121.238281-70.980469 323.246094 256-303.230469zm0 0" fill="#87a0af"/><path d="m346.996094 141.253906-212.015625-20.015625 121.019531 323.246094zm0 0" fill="#b4d2d7"/><path d="m0 141.253906 256 303.230469-90.996094-303.230469-78.671875-33.582031zm0 0" fill="#e1ebf0"/><path d="m512 141.253906-95.679688-141.253906-69.324218 52.574219v88.679687zm0 0" fill="#b4d2d7"/><path d="m416.320312 0h-160.320312l7 80.574219 83.996094 60.679687zm0 0" fill="#e1ebf0"/><path d="m256 0-67 53.242188-23.996094 88.011718h181.992188zm0 0" fill="#87a0af"/><path d="m256 0h-160.320312l9.320312 87.242188 60.003906 54.011718zm0 0" fill="#e1ebf0"/><path d="m0 141.253906h165.003906l-69.324218-141.253906zm0 0" fill="#b4d2d7"/></svg>