<svg height="512pt" viewBox="0 -28 512 512" width="512pt" xmlns="http://www.w3.org/2000/svg"><path d="m512 0h-256l-20.015625 126.324219 276.015625-20.015625zm0 0" fill="#c78f2c"/><path d="m31.894531 0v106.308594l224.105469 20.015625v-126.324219zm0 0" fill="#e7c598"/><path d="m512 106.308594h-256l-20.015625 171.699218 20.015625 178.007813h256zm0 0" fill="#e7c598"/><path d="m213.476562 106.308594-21.261718-42.523438h-192.214844v392.230469h256v-349.707031zm0 0" fill="#f3e2c2"/><path d="m183.828125 367.179688-67.683594-86.015626 67.683594-86.015624 23.574219 18.550781-53.082032 67.464843 53.082032 67.460938zm0 0" fill="#0b799d"/><path d="m328.171875 367.179688-23.574219-18.554688 53.082032-67.460938-53.082032-67.464843 23.574219-18.550781 67.683594 86.015624zm0 0" fill="#07485e"/><path d="m241 195.1875h30v171.949219h-30zm0 0" fill="#0b799d"/></svg>