<svg height="512pt" viewBox="1 0 511 512" width="512pt" xmlns="http://www.w3.org/2000/svg"><path d="m451.519531 371.257812v68.800782h30v-98.800782h-225.019531l-10.007812 15.550782 10.007812 14.449218zm0 0" fill="#b4d2d7"/><path d="m31.480469 440.058594h30v-68.800782h195.019531v-30h-225.019531zm0 0" fill="#e1ebf0"/><path d="m241.5 230.332031h30v231.925781h-30zm0 0" fill="#87a0af"/><path d="m.5 420.039062h91.960938v91.960938h-91.960938zm0 0" fill="#5697e5"/><path d="m420.539062 420.039062h91.960938v91.960938h-91.960938zm0 0" fill="#1862bf"/><path d="m302.480469 512v-91.960938h-45.980469l-20.015625 45.980469 20.015625 45.980469zm0 0" fill="#1862bf"/><path d="m210.519531 420.039062h45.980469v91.960938h-45.980469zm0 0" fill="#5697e5"/><path d="m485.832031 177.820312c0-42.359374-33.699219-76.828124-75.746093-78.117187-1.253907-55.273437-46.417969-99.703125-101.996094-99.703125-18.828125 0-36.453125 5.109375-51.589844 14.007812l-20.015625 135.320313 20.015625 106.671875h151.152344c43.175781 0 78.179687-35 78.179687-78.179688zm0 0" fill="#efe2dd"/><path d="m233.378906 32.566406c-13.199218-8.480468-28.890625-13.417968-45.742187-13.417968-45.40625 0-82.472657 35.695312-84.675781 80.554687-42.070313 1.265625-75.792969 35.742187-75.792969 78.117187 0 43.175782 35 78.179688 78.179687 78.179688h151.152344v-241.992188c-8.585938 5.046876-16.375 11.308594-23.121094 18.558594zm0 0" fill="#fff5f5"/></svg>