<svg height="512pt" viewBox="0 0 512.00095 512" width="512pt" xmlns="http://www.w3.org/2000/svg"><path d="m46.300781 465.699219 46.296875 46.296875 35.992188-35.992188 3.53125-17.683594 17.683594-3.53125 25.386718-25.386718 3.527344-17.683594 17.683594-3.527344 25.386718-25.390625 3.53125-17.679687 17.683594-3.53125 25.386719-25.386719 3.53125-17.683594 17.683594-3.53125 25.386719-25.390625 3.527343-17.675781 17.683594-3.53125 25.390625-25.390625 3.53125-17.683594 17.683594-3.53125 25.382812-25.382812 3.535156-17.6875 17.675782-3.523438 25.386718-25.386718 3.53125-17.6875 17.683594-3.527344 35.996094-35.996094-46.296875-46.296875-223.855469 195.546875zm0 0" fill="#15ccc2"/><path d="m0 419.402344 419.398438-419.402344 46.300781 46.296875-419.402344 419.402344zm0 0" fill="#6fe8d5"/><path d="m128.589844 476.003906 21.214844-21.214844-46.296876-46.296874-17.683593 3.53125-3.53125 17.683593zm0 0" fill="#038883"/><path d="m175.191406 429.402344 21.210938-21.214844-46.296875-46.296875-17.683594 3.53125-3.527344 17.683594zm0 0" fill="#038883"/><path d="m221.792969 382.800781 21.210937-21.210937-46.296875-46.296875-17.683593 3.527343-3.53125 17.683594zm0 0" fill="#038883"/><path d="m268.390625 336.203125 21.214844-21.214844-46.296875-46.296875-17.683594 3.527344-3.53125 17.683594zm0 0" fill="#038883"/><path d="m314.992188 289.601562 21.214843-21.214843-46.300781-46.296875-17.679688 3.53125-3.53125 17.683594zm0 0" fill="#038883"/><path d="m361.59375 243 21.210938-21.210938-46.296876-46.296874-17.683593 3.527343-3.527344 17.683594zm0 0" fill="#038883"/><path d="m408.195312 196.402344 21.210938-21.214844-46.296875-46.296875-17.683594 3.527344-3.53125 17.683593zm0 0" fill="#038883"/><path d="m454.792969 149.800781 21.214843-21.214843-46.300781-46.296876-17.679687 3.53125-3.53125 17.679688zm0 0" fill="#038883"/><g fill="#15ccc2"><path d="m128.890625 383.109375-21.230469-21.230469 21.214844-21.214844 21.230469 21.230469zm0 0"/><path d="m175.492188 336.507812-21.230469-21.230468 21.214843-21.210938 21.230469 21.226563zm0 0"/><path d="m222.09375 289.90625-21.230469-21.230469 21.214844-21.210937 21.230469 21.230468zm0 0"/><path d="m268.695312 243.308594-21.230468-21.230469 21.210937-21.214844 21.230469 21.230469zm0 0"/><path d="m315.296875 196.707031-21.230469-21.230469 21.210938-21.214843 21.230468 21.230469zm0 0"/><path d="m361.898438 150.105469-21.230469-21.230469 21.210937-21.210938 21.230469 21.230469zm0 0"/><path d="m387.261719 82.273438 21.214843-21.210938 21.230469 21.226562-21.214843 21.214844zm0 0"/><path d="m82.289062 429.707031-21.226562-21.230469 21.210938-21.210937 21.230468 21.230469zm0 0"/></g></svg>