<svg height="512pt" viewBox="0 -23 512 511" width="512pt" xmlns="http://www.w3.org/2000/svg"><path d="m512 64.285156-276.015625-20.015625v314.546875l276.015625-20.015625zm0 0" fill="#03232e"/><path d="m0 64.285156v274.515625l256 20.015625v-314.546875zm0 0" fill="#07485e"/><path d="m302.207031 201.542969-46.207031-30.15625-20.015625 30.0625 20.015625 30.25zm0 0" fill="#ff3939"/><path d="m209.792969 261.859375 46.207031-30.160156v-60.3125l-46.207031-30.160157zm0 0" fill="#ff8859"/><path d="m512 .5h-256l-20.015625 31.890625 20.015625 31.894531h256zm0 0" fill="#b4d2d7"/><path d="m0 .5h256v63.785156h-256zm0 0" fill="#e1ebf0"/><path d="m512 466.371094v-127.570313h-256l-20.015625 63.785157 20.015625 63.785156zm0 0" fill="#b4d2d7"/><path d="m0 338.800781h256v127.570313h-256zm0 0" fill="#e1ebf0"/><path d="m368.480469 387.585938h31.894531v30h-31.894531zm0 0" fill="#15ccc2"/><path d="m432.269531 387.585938h31.890625v30h-31.890625zm0 0" fill="#ff9f22"/><path d="m336.589844 387.585938h-80.589844l-10.007812 15 10.007812 15h80.589844zm0 0" fill="#ff3939"/><path d="m47.839844 387.585938h208.160156v30h-208.160156zm0 0" fill="#ff8859"/></svg>