<svg height="512pt" viewBox="-45 0 512 512" width="512pt" xmlns="http://www.w3.org/2000/svg"><path d="m44.199219 58.667969v388.480469l83.152343-20.050782v-348.382812zm0 0" fill="#ff9f22"/><path d="m64.246094 58.667969-64.246094 20.046875v348.382812l64.246094 20.050782zm0 0" fill="#ffda44"/><path d="m49.222656 56.429688h30.046875v392.953124h-30.046875zm0 0" fill="#07485e"/><path d="m303.625 511.988281c62.1875 0 112.601562-50.414062 112.601562-112.601562v-110.457031l-132.648437-20.046876zm0 0" fill="#87a0af"/><path d="m318.648438 197.675781h-30.046876v-76.453125c0-36.65625 29.824219-66.476562 66.480469-66.476562 20.089844 0 36.433594-16.34375 36.433594-36.433594v-18.3125h30.046875v18.3125c0 36.65625-29.824219 66.480469-66.480469 66.480469-20.089843 0-36.433593 16.34375-36.433593 36.429687zm0 0" fill="#07485e"/><path d="m191.027344 288.929688v110.457031c0 62.1875 50.410156 112.601562 112.597656 112.601562v-243.105469zm0 0" fill="#b4d2d7"/><path d="m303.625 153.582031-20.046875 67.671875 20.046875 67.675782h112.601562v-22.746094c0-62.1875-50.414062-112.601563-112.601562-112.601563zm0 0" fill="#b4d2d7"/><path d="m303.625 153.582031c-62.1875 0-112.597656 50.414063-112.597656 112.601563v22.746094h112.597656zm0 0" fill="#e1ebf0"/><path d="m127.351562 78.714844-63.105468-78.007813-20.046875 55.722657 20.046875 22.285156zm0 0" fill="#efe2dd"/><path d="m64.246094.707031-.570313-.707031-63.675781 78.714844h64.246094zm0 0" fill="#fff5f5"/><path d="m64.246094 512h63.105468v-84.902344h-63.105468l-20.046875 42.453125zm0 0" fill="#ff3939"/><path d="m0 427.097656h64.246094v84.902344h-64.246094zm0 0" fill="#ff8859"/></svg>