<svg height="512pt" viewBox="0 0 512.0005 512" width="512pt" xmlns="http://www.w3.org/2000/svg"><path d="m294.222656 3.183594c-12.539062-1.871094-25.308594-2.824219-38.222656-2.824219l-20.015625 59.941406 20.015625 73.679688c13.347656 0 26.195312 2.160156 38.222656 6.140625l20.019532-69.882813zm0 0" fill="#efe2dd"/><path d="m33.933594 155.675781c-2.992188-2.296875-5.863282-4.820312-8.546875-7.503906-33.847657-33.851563-33.847657-88.929687.003906-122.78125 33.851563-33.855469 88.933594-33.851563 122.78125 0 2.679687 2.675781 5.203125 5.550781 7.503906 8.539063l-23.789062 18.289062c-1.507813-1.960938-3.167969-3.851562-4.929688-5.613281-22.152343-22.152344-58.199219-22.152344-80.351562 0-22.152344 22.152343-22.152344 58.199219 0 80.351562 1.765625 1.765625 3.652343 3.421875 5.613281 4.929688zm0 0" fill="#efe2dd"/><path d="m478.066406 155.675781-18.285156-23.789062c1.960938-1.503907 3.847656-3.164063 5.613281-4.929688 22.152344-22.152343 22.152344-58.195312 0-80.351562-22.152343-22.152344-58.199219-22.152344-80.351562 0-1.765625 1.765625-3.425781 3.65625-4.929688 5.613281l-23.789062-18.285156c2.292969-2.984375 4.816406-5.859375 7.5-8.542969 33.855469-33.851563 88.9375-33.851563 122.785156 0 33.855469 33.851563 33.855469 88.933594 0 122.785156-2.679687 2.679688-5.554687 5.207031-8.542969 7.5zm0 0" fill="#cdbfba"/><path d="m425.21875 512c-22.234375 0-44.46875-8.464844-61.394531-25.390625-2.679688-2.679687-5.203125-5.554687-7.5-8.539063l23.789062-18.289062c1.503907 1.957031 3.164063 3.847656 4.929688 5.613281 22.152343 22.152344 58.199219 22.152344 80.351562 0 22.152344-22.152343 22.152344-58.199219 0-80.351562-1.765625-1.765625-3.652343-3.421875-5.613281-4.929688l18.289062-23.789062c2.988282 2.296875 5.859376 4.820312 8.539063 7.503906 33.855469 33.851563 33.855469 88.929687 0 122.78125-16.921875 16.925781-39.160156 25.390625-61.390625 25.390625zm0 0" fill="#cdbfba"/><path d="m86.78125 512c-22.234375.003906-44.464844-8.460938-61.390625-25.390625-33.855469-33.851563-33.855469-88.929687 0-122.78125 2.675781-2.679687 5.550781-5.203125 8.539063-7.503906l18.289062 23.789062c-1.960938 1.507813-3.851562 3.167969-5.613281 4.929688-22.152344 22.152343-22.152344 58.199219 0 80.351562 22.152343 22.152344 58.199219 22.152344 80.351562 0 1.765625-1.765625 3.421875-3.652343 4.929688-5.613281l23.789062 18.285156c-2.296875 2.992188-4.820312 5.867188-7.503906 8.546875-16.921875 16.921875-39.160156 25.386719-61.390625 25.386719zm0 0" fill="#efe2dd"/><path d="m256 .359375c-12.914062 0-25.679688.953125-38.21875 2.824219l-20.019531 71.789062 20.019531 65.144532c12.027344-3.976563 24.875-6.136719 38.21875-6.136719zm0 0" fill="#fff5f5"/><path d="m217.78125 140.117188v-136.933594c-53.777344 8.011718-103.394531 32.898437-142.546875 72.050781s-64.039063 88.769531-72.050781 142.542969l74.65625 20.019531 62.28125-20.019531c12.097656-36.585938 41.070312-65.5625 77.660156-77.660156zm0 0" fill="#ff8859"/><path d="m140.121094 217.777344h-136.9375c-1.867188 12.542968-2.824219 25.308594-2.824219 38.222656s.957031 25.679688 2.824219 38.222656l70.457031 20.019532 66.480469-20.019532c-3.976563-12.027344-6.136719-24.878906-6.136719-38.222656s2.15625-26.195312 6.136719-38.222656zm0 0" fill="#fff5f5"/><path d="m75.234375 436.765625c39.152344 39.152344 88.769531 64.039063 142.546875 72.050781l20.019531-71.835937-20.019531-65.097657c-36.589844-12.097656-65.5625-41.074218-77.660156-77.660156h-136.9375c8.011718 53.773438 32.898437 103.390625 72.050781 142.542969zm0 0" fill="#ff8859"/><path d="m217.78125 371.882812v136.933594c12.539062 1.871094 25.304688 2.824219 38.21875 2.824219l20.019531-74.660156-20.019531-58.960938c-13.34375 0-26.191406-2.160156-38.21875-6.136719zm0 0" fill="#fff5f5"/><path d="m294.222656 508.816406 20.019532-74.65625-20.019532-62.28125c-12.027344 3.980469-24.875 6.140625-38.222656 6.140625v133.621094c12.914062 0 25.683594-.953125 38.222656-2.824219zm0 0" fill="#efe2dd"/><path d="m294.222656 371.878906v136.9375c53.773438-8.015625 103.390625-32.898437 142.542969-72.050781s64.039063-88.769531 72.050781-142.542969l-77.789062-20.019531-59.144532 20.019531c-12.101562 36.585938-41.070312 65.558594-77.660156 77.65625zm0 0" fill="#ff3939"/><path d="m508.816406 217.777344-71.785156-20.019532-65.148438 20.019532c3.976563 12.027344 6.136719 24.878906 6.136719 38.222656s-2.160156 26.191406-6.136719 38.222656h136.933594c1.871094-12.542968 2.824219-25.308594 2.824219-38.222656s-.957031-25.679688-2.824219-38.222656zm0 0" fill="#efe2dd"/><path d="m436.765625 75.234375c-39.152344-39.152344-88.769531-64.039063-142.542969-72.050781v136.9375c36.589844 12.097656 65.558594 41.070312 77.660156 77.65625h136.933594c-8.015625-53.773438-32.898437-103.390625-72.050781-142.542969zm0 0" fill="#ff3939"/></svg>