<svg height="512pt" viewBox="-128 0 512 512" width="512pt" xmlns="http://www.w3.org/2000/svg"><path d="m127.570312 512h47.839844v-63.785156l-67.886718-20.046875zm0 0" fill="#03232e"/><path d="m79.734375 448.214844v63.785156h47.835937v-83.832031zm0 0" fill="#07485e"/><path d="m107.523438 139.414062 20.046874 308.800782h47.839844v-193.074219h29.832032c27.558593 0 49.898437-22.339844 49.898437-49.898437v-45.777344zm0 0" fill="#038883"/><path d="m127.570312 139.414062-127.570312 20.050782v45.773437c0 27.5625 22.34375 49.902344 49.902344 49.902344h29.828125v193.074219h47.839843zm0 0" fill="#15ccc2"/><path d="m255.144531 0h-63.789062l-20.046875 79.730469 20.046875 79.734375h63.789062zm0 0" fill="#efe2dd"/><path d="m191.355469 159.464844v-159.464844h-63.785157l-20.046874 79.730469 20.046874 79.734375zm0 0" fill="#fff5f5"/><path d="m127.570312 0h-63.785156l-20.046875 79.730469 20.046875 79.734375h63.785156zm0 0" fill="#efe2dd"/><path d="m0 0h63.785156v159.464844h-63.785156zm0 0" fill="#fff5f5"/></svg>