<svg height="512pt" viewBox="0 -28 512 512" width="512pt" xmlns="http://www.w3.org/2000/svg"><path d="m512 0h-256l-20.015625 126.324219 276.015625-20.015625zm0 0" fill="#c78f2c"/><path d="m31.894531 0v106.308594l224.105469 20.015625v-126.324219zm0 0" fill="#e7c598"/><path d="m512 106.308594h-256l-20.015625 329.691406 83.800781 20.015625h192.214844zm0 0" fill="#e7c598"/><path d="m213.476562 106.308594-21.261718-42.523438h-192.214844v392.230469h192.214844l63.785156-20.015625v-329.691406zm0 0" fill="#f3e2c2"/><path d="m319.785156 245.449219-83.800781-20.015625 35.015625 230.582031h48.785156zm0 0" fill="#ff9f22"/><path d="m192.214844 245.449219v210.566406h48.785156l15-230.582031zm0 0" fill="#ffda44"/><path d="m241 225.433594h30v230.582031h-30zm0 0" fill="#07485e"/><path d="m256 160.402344-20.015625 58.324218 20.015625 26.722657h63.785156zm0 0" fill="#efe2dd"/><path d="m192.214844 245.449219h63.785156v-85.046875zm0 0" fill="#fff5f5"/></svg>