<svg height="512pt" viewBox="0 0 512 512" width="512pt" xmlns="http://www.w3.org/2000/svg"><path d="m311.808594 155.085938 101.484375 56.378906 75.355469-75.355469c31.136718-31.136719 31.136718-81.621094 0-112.757813zm0 0" fill="#1862bf"/><path d="m375.890625 23.351562-75.355469 75.355469 30.769532 81.984375 157.339843-157.339844c-31.132812-31.136718-81.617187-31.136718-112.753906 0zm0 0" fill="#5697e5"/><path d="m54.445312 502.660156 27.253907-27.257812c28.609375 11.207031 62.386719 5.269531 85.503906-17.847656l200.984375-200.984376-112.757812-45.105468-246.089844 291.195312c12.457031 12.453125 32.648437 12.453125 45.105468 0zm0 0" fill="#7ed8f6"/><path d="m54.445312 344.796875c-23.117187 23.117187-29.054687 56.894531-17.847656 85.503906l-27.257812 27.253907c-12.453125 12.457031-12.453125 32.648437 0 45.105468l278.308594-278.308594-144.976563 32.21875zm0 0" fill="#beebfa"/><path d="m368.1875 256.570312-56.378906-91.570312-56.378906 91.570312zm0 0" fill="#efe2dd"/><path d="m142.671875 256.570312h112.757813l75.878906-75.878906-75.878906-36.878906zm0 0" fill="#fff5f5"/><path d="m311.808594 200.191406 101.484375 101.480469 45.101562-45.101563-101.480469-101.484374h-45.105468zm0 0" fill="#1862bf"/><path d="m210.324219 98.707031 45.105469-45.101562 101.480468 101.480469-45.101562 45.105468zm0 0" fill="#5697e5"/></svg>