<svg height="512pt" viewBox="-47 0 511 512" width="512pt" xmlns="http://www.w3.org/2000/svg"><path d="m208.660156 512h208.160156v-127.570312l-228.175781-20.015626zm0 0" fill="#07485e"/><path d="m.5 384.429688v127.570312h208.160156v-147.585938zm0 0" fill="#0b799d"/><path d="m187.398438 433.214844h42.523437v30h-42.523437zm0 0" fill="#e1ebf0"/><path d="m208.660156 0-20.015625 192.214844 20.015625 192.214844h208.160156v-384.429688zm0 0" fill="#03232e"/><path d="m.5 0h208.160156v384.429688h-208.160156zm0 0" fill="#07485e"/><path d="m48.289062 48.734375h145.359376v158.480469h-145.359376zm0 0" fill="#6fe8d5"/><g fill="#ffda44"><path d="m224.140625 48.734375h144.84375v30h-144.84375zm0 0"/><path d="m224.140625 112.976562h144.84375v30h-144.84375zm0 0"/><path d="m224.140625 177.214844h144.84375v30h-144.84375zm0 0"/></g><path d="m368.984375 241.453125h-160.324219l-10.007812 15.082031 10.007812 14.917969h160.324219zm0 0" fill="#efe2dd"/><path d="m368.984375 335.695312v-30h-160.324219l-10.007812 15 10.007812 15zm0 0" fill="#efe2dd"/><path d="m48.289062 241.453125h160.371094v30h-160.371094zm0 0" fill="#fff5f5"/><path d="m48.289062 305.695312h160.371094v30h-160.371094zm0 0" fill="#fff5f5"/></svg>