<svg height="512pt" viewBox="0 0 512 512" width="512pt" xmlns="http://www.w3.org/2000/svg"><path d="m480.105469 170.09375v-63.785156h-224.105469l-20.015625 83.800781zm0 0" fill="#87a0af"/><path d="m256 106.308594h-224.105469v63.785156l224.105469 20.015625zm0 0" fill="#b4d2d7"/><path d="m480.105469 170.09375h-224.105469l-20.015625 234.351562 244.121094-20.015624zm0 0" fill="#03232e"/><path d="m31.894531 170.09375v214.335938l224.105469 20.015624v-234.351562zm0 0" fill="#07485e"/><path d="m480.105469 384.429688h-224.105469l-20.015625 83.800781 244.121094-20.015625zm0 0" fill="#87a0af"/><path d="m31.894531 384.429688v63.785156l224.105469 20.015625v-83.800781zm0 0" fill="#b4d2d7"/><path d="m512 448.214844h-256l-20.015625 31.890625 20.015625 31.894531h256zm0 0" fill="#b4d2d7"/><path d="m0 448.214844h256v63.785156h-256zm0 0" fill="#e1ebf0"/><path d="m256 .00390625-22.085938 274.40624975 78.851563-22.082031v-11.738281c0-22.824219 8.632813-44.691406 23.765625-61.78125 16.808594-18.972656 27.011719-43.925782 27.011719-71.265625 0-59.394531-48.148438-107.53906275-107.542969-107.53906275zm0 0" fill="#ff9f22"/><path d="m256 .00390625c-.070312 0-.140625-.00390625-.210938-.00390625-59.148437.113281-107.410156 48.539062-107.332031 107.691406.035157 27.34375 10.28125 52.296875 27.125 71.25 15.046875 16.933594 23.652344 38.617188 23.652344 61.269532v12.117187l56.765625 22.085937zm0 0" fill="#ffda44"/><path d="m256 320.644531h56.765625v-68.316406h-56.765625l-22.085938 34.15625zm0 0" fill="#b4d2d7"/><path d="m199.234375 252.328125h56.765625v68.316406h-56.765625zm0 0" fill="#e1ebf0"/></svg>