<svg height="512pt" viewBox="-106 0 512 512" width="512pt" xmlns="http://www.w3.org/2000/svg"><path d="m149.691406 0-20.015625 83.800781 169.707031-20.015625v-63.785156zm0 0" fill="#07485e"/><path d="m149.691406 0h-149.691406v63.785156l149.691406 20.015625zm0 0" fill="#0b799d"/><path d="m129.675781 404.445312 169.707031-20.015624v-320.644532h-149.691406zm0 0" fill="#03232e"/><path d="m149.691406 63.785156h-149.691406v320.644532l149.691406 20.015624zm0 0" fill="#07485e"/><path d="m213.476562 203.886719-83.800781-20.015625 20.015625 220.574218 63.785156-20.015624zm0 0" fill="#ff9f22"/><path d="m85.90625 203.886719v180.542969l63.785156 20.015624v-220.574218zm0 0" fill="#ffda44"/><path d="m134.691406 183.871094h30v220.574218h-30zm0 0" fill="#07485e"/><path d="m149.691406 118.839844-20.015625 58.324218 20.015625 26.722657h63.785156zm0 0" fill="#efe2dd"/><path d="m85.90625 203.886719h63.785156v-85.046875zm0 0" fill="#fff5f5"/><path d="m149.691406 512h149.691406v-127.570312h-149.691406l-20.015625 63.785156zm0 0" fill="#07485e"/><path d="m0 384.429688h149.691406v127.570312h-149.691406zm0 0" fill="#0b799d"/><path d="m128.429688 433.214844h42.523437v30h-42.523437zm0 0" fill="#e1ebf0"/></svg>