<svg height="512pt" viewBox="0 0 512 512" width="512pt" xmlns="http://www.w3.org/2000/svg"><path d="m256 209.132812-20.015625 46.867188 20.015625 46.867188c25.84375 0 46.867188-21.023438 46.867188-46.867188s-21.023438-46.867188-46.867188-46.867188zm0 0" fill="#87a0af"/><path d="m512 310.089844v-108.179688l-41.179688-11.289062c-4.273437-14.058594-9.890624-27.53125-16.699218-40.273438l21.144531-37.121094-76.492187-76.492187-37.121094 21.144531c-12.742188-6.808594-26.214844-12.425781-40.273438-16.699218l-11.289062-41.179688h-54.089844l-20.015625 102.332031 20.015625 58.066407c52.714844 0 95.601562 42.886718 95.601562 95.601562s-42.886718 95.601562-95.601562 95.601562l-20.015625 54.519532 20.015625 105.878906h54.089844l11.289062-41.179688c14.058594-4.273437 27.53125-9.890624 40.273438-16.699218l37.121094 21.144531 76.492187-76.492187-21.144531-37.121094c6.808594-12.742188 12.425781-26.214844 16.699218-40.273438zm0 0" fill="#b4d2d7"/><path d="m160.398438 256c0-52.714844 42.886718-95.601562 95.601562-95.601562v-160.398438h-54.089844l-11.289062 41.179688c-14.058594 4.273437-27.53125 9.890624-40.273438 16.699218l-37.121094-21.144531-76.492187 76.492187 21.144531 37.121094c-6.808594 12.742188-12.425781 26.214844-16.699218 40.273438l-41.179688 11.289062v108.179688l41.179688 11.292968c4.273437 14.058594 9.890624 27.53125 16.699218 40.269532l-21.144531 37.121094 76.492187 76.492187 37.121094-21.144531c12.742188 6.8125 26.214844 12.425781 40.273438 16.699218l11.289062 41.179688h54.089844v-160.398438c-52.714844 0-95.601562-42.886718-95.601562-95.601562zm0 0" fill="#e1ebf0"/><path d="m209.132812 256c0 25.84375 21.023438 46.867188 46.867188 46.867188v-93.734376c-25.84375 0-46.867188 21.023438-46.867188 46.867188zm0 0" fill="#b4d2d7"/></svg>