<svg height="512pt" viewBox="0 0 512 512" width="512pt" xmlns="http://www.w3.org/2000/svg"><path d="m480.105469 170.09375v-63.785156h-224.105469l-20.015625 83.800781zm0 0" fill="#87a0af"/><path d="m256 106.308594h-224.105469v63.785156l224.105469 20.015625zm0 0" fill="#b4d2d7"/><path d="m480.105469 170.09375h-224.105469l-20.015625 234.351562 244.121094-20.015624zm0 0" fill="#03232e"/><path d="m31.894531 170.09375v214.335938l224.105469 20.015624v-234.351562zm0 0" fill="#07485e"/><path d="m271 23.898438-15 .003906-20.015625 303.257812 81.210937-20.015625 64.929688-106.167969zm0 0" fill="#b4d2d7"/><path d="m256 23.902344h-15l-111.125 177.074218 64.929688 106.167969 61.195312 20.015625zm0 0" fill="#e1ebf0"/><path d="m217.949219 205.203125c0 21.015625 17.035156 38.050781 38.050781 38.050781s38.050781-17.035156 38.050781-38.050781c0-15.6875-9.496093-29.152344-23.050781-34.972656v-146.328125l-15-23.902344-15 23.902344v146.328125c-13.554688 5.820312-23.050781 19.285156-23.050781 34.972656zm0 0" fill="#87a0af"/><path d="m235.984375 404.445312 81.210937-20.015624v-77.285157h-61.195312zm0 0" fill="#c78f2c"/><path d="m194.804688 307.144531v77.285157l61.195312 20.015624v-97.300781zm0 0" fill="#e7c598"/><path d="m480.105469 384.429688h-224.105469l-20.015625 83.800781 244.121094-20.015625zm0 0" fill="#87a0af"/><path d="m31.894531 384.429688v63.785156l224.105469 20.015625v-83.800781zm0 0" fill="#b4d2d7"/><path d="m512 448.214844h-256l-20.015625 31.890625 20.015625 31.894531h256zm0 0" fill="#b4d2d7"/><path d="m0 448.214844h256v63.785156h-256zm0 0" fill="#e1ebf0"/></svg>