<svg height="512pt" viewBox="0 -28 512 512" width="512pt" xmlns="http://www.w3.org/2000/svg"><path d="m512 0h-256l-20.015625 126.324219 276.015625-20.015625zm0 0" fill="#c78f2c"/><path d="m31.894531 0v106.308594l224.105469 20.015625v-126.324219zm0 0" fill="#e7c598"/><path d="m512 106.308594h-256l-20.015625 171.699218 20.015625 178.007813h256zm0 0" fill="#e7c598"/><path d="m213.476562 106.308594-21.261718-42.523438h-192.214844v392.230469h256v-349.707031zm0 0" fill="#f3e2c2"/><path d="m320.214844 281.160156c0 35.410156-28.808594 64.214844-64.214844 64.214844l-10.007812 16.964844 10.007812 45.835937h15v-34c14.808594-2.378906 28.472656-8.21875 40.132812-16.664062l24.074219 24.070312 21.210938-21.214843-24.070313-24.070313c8.445313-11.664063 14.289063-25.328125 16.667969-40.136719h34v-30h-34c-2.378906-14.804687-8.222656-28.46875-16.667969-40.132812l24.070313-24.070313-21.210938-21.214843-24.074219 24.070312c-11.660156-8.445312-25.324218-14.285156-40.132812-16.664062v-34h-15l-10.007812 44.027343 10.007812 18.773438c35.40625 0 64.214844 28.804687 64.214844 64.210937zm0 0" fill="#07485e"/><path d="m241 188.148438c-14.808594 2.378906-28.472656 8.21875-40.136719 16.667968l-24.070312-24.074218-21.214844 21.214843 24.074219 24.070313c-8.445313 11.664062-14.289063 25.328125-16.667969 40.136718h-34v30h34c2.378906 14.808594 8.222656 28.472657 16.667969 40.132813l-24.074219 24.074219 21.214844 21.210937 24.070312-24.070312c11.664063 8.445312 25.328125 14.285156 40.136719 16.667969v34h15v-62.800782c-35.410156 0-64.214844-28.808594-64.214844-64.214844s28.808594-64.214843 64.214844-64.214843v-62.800781h-15zm0 0" fill="#0b799d"/></svg>