<svg height="512pt" viewBox="0 -30 512 512" width="512pt" xmlns="http://www.w3.org/2000/svg"><path d="m90.046875 256.789062-30-15v-15.835937c0-34.445313 9.070313-68.332031 26.226563-97.988281l25.96875 15.019531c-14.519532 25.101563-22.195313 53.789063-22.195313 82.96875zm0 0" fill="#e1ebf0"/><path d="m451.953125 241.789062-30 15v-30.835937c0-29.183594-7.675781-57.875-22.199219-82.972656l25.96875-15.023438c17.160156 29.660157 26.230469 63.546875 26.230469 97.996094zm0 0" fill="#b4d2d7"/><path d="m75.046875 421.902344h-.003906c-41.378907 0-75.042969-33.664063-75.042969-75.042969s33.664062-75.042969 75.042969-75.042969zm0 0" fill="#0b799d"/><path d="m436.957031 421.902344-.003906-30v-120.085938c41.382813 0 75.046875 33.664063 75.046875 75.042969s-33.664062 75.042969-75.042969 75.042969zm0 0" fill="#07485e"/><path d="m60.046875 241.789062h90.050781v210.140626h-90.050781zm0 0" fill="#07485e"/><path d="m361.902344 241.789062h90.050781v210.140626h-90.050781zm0 0" fill="#03232e"/><path d="m451.628906 112.984375c-19.535156-33.707031-47.597656-61.988281-81.152344-81.785156-34.597656-20.410157-74.183593-31.199219-114.476562-31.199219h-.003906l-20.015625 46.964844 20.015625 43.035156h.003906c48.300781 0 93.40625 26.0625 117.722656 68.019531l7.507813 12.957031 77.933593-44.996093zm0 0" fill="#07485e"/><path d="m141.519531 31.203125c-33.558593 19.800781-61.621093 48.082031-81.15625 81.789063l-7.53125 13 77.929688 44.992187 7.507812-12.957031c24.316407-41.960938 69.425781-68.027344 117.726563-68.027344v-90c-40.292969 0-79.878906 10.789062-114.476563 31.203125zm0 0" fill="#0b799d"/></svg>