<svg height="512pt" viewBox="-52 0 512 512" width="512pt" xmlns="http://www.w3.org/2000/svg"><path d="m204.234375 0-20.015625 36.332031 20.015625 34.648438c62.359375 0 113.089844 50.730469 113.089844 113.089843 0 62.359376-50.730469 113.089844-113.089844 113.089844l-20.015625 71.839844 20.015625 143s204.234375-130.789062 204.234375-307.765625c-.003906-112.617187-91.621094-204.234375-204.234375-204.234375zm0 0" fill="#ff3939"/><path d="m204.234375 120.085938-20.015625 63.984374 20.015625 63.984376c35.28125 0 63.984375-28.703126 63.984375-63.984376s-28.703125-63.984374-63.984375-63.984374zm0 0" fill="#ff3939"/><g fill="#ff8859"><path d="m91.140625 184.070312c0-62.359374 50.734375-113.089843 113.09375-113.089843v-70.980469c-112.617187 0-204.234375 91.617188-204.234375 204.234375 0 176.953125 204.179688 307.730469 204.234375 307.765625v-214.839844c-62.359375 0-113.09375-50.730468-113.09375-113.089844zm0 0"/><path d="m140.246094 184.070312c0 35.28125 28.707031 63.984376 63.988281 63.984376v-127.96875c-35.28125 0-63.988281 28.703124-63.988281 63.984374zm0 0"/></g></svg>