<svg height="512pt" viewBox="-84 0 512 512" width="512pt" xmlns="http://www.w3.org/2000/svg"><path d="m171.726562.00390625-20.015624 203.66406275 20.015624 180.761719h90.644532v-.253907c0-36.449219 13.78125-71.367187 37.949218-98.652343 26.835938-30.296876 43.128907-70.140626 43.128907-113.796876 0-94.84375-76.882813-171.72265575-171.722657-171.72265575zm0 0" fill="#ff9f22"/><path d="m171.726562.00390625c-.113281 0-.222656-.00390625-.335937-.00390625-94.453125.179688-171.515625 77.507812-171.390625 171.960938.0585938 43.664062 16.417969 83.503906 43.316406 113.773437 24.027344 27.035156 37.765625 61.664063 37.765625 97.832031v.863282h90.644531zm0 0" fill="#ffda44"/><path d="m171.726562 512c32.445313 0 58.75-26.304688 58.75-58.75v-5.035156l-78.765624-20.015625zm0 0" fill="#87a0af"/><path d="m112.972656 453.25c0 32.445312 26.304688 58.75 58.753906 58.75v-83.800781l-58.753906 20.015625zm0 0" fill="#b4d2d7"/><path d="m171.726562 448.214844h90.644532v-63.785156h-90.644532l-20.015624 31.890624zm0 0" fill="#b4d2d7"/><path d="m81.082031 384.429688h90.644531v63.785156h-90.644531zm0 0" fill="#e1ebf0"/><path d="m285.03125 186.722656v-30h-34.261719c-2.09375-11.046875-6.4375-21.308594-12.558593-30.269531l24.238281-24.242187-21.210938-21.214844-24.242187 24.242187c-8.960938-6.121093-19.222656-10.464843-30.269532-12.558593v-34.261719h-15l-10.007812 46.582031 10.007812 16.257812c27.824219 0 50.464844 22.640626 50.464844 50.46875 0 27.824219-22.640625 50.464844-50.464844 50.464844l-10.007812 18.808594 10.007812 44.03125h15v-34.261719c11.046876-2.09375 21.304688-6.441406 30.269532-12.5625l24.242187 24.242188 21.210938-21.210938-24.242188-24.242187c6.125-8.964844 10.46875-19.222656 12.5625-30.273438zm0 0" fill="#efe2dd"/><path d="m121.257812 171.722656c0-27.824218 22.640626-50.464844 50.46875-50.464844v-62.839843h-15v34.261719c-11.050781 2.09375-21.308593 6.4375-30.273437 12.5625l-24.242187-24.242188-21.210938 21.210938 24.242188 24.242187c-6.121094 8.960937-10.46875 19.222656-12.5625 30.273437h-34.261719v30h34.261719c2.09375 11.046876 6.441406 21.304688 12.5625 30.269532l-24.242188 24.242187 21.210938 21.214844 24.242187-24.242187c8.964844 6.121093 19.222656 10.464843 30.269531 12.558593v34.261719h15v-62.839844c-27.824218 0-50.464844-22.640625-50.464844-50.46875zm0 0" fill="#fff5f5"/></svg>