<svg height="512pt" viewBox="0 -53 512 511" width="512pt" xmlns="http://www.w3.org/2000/svg"><path d="m480.105469 64.285156v-63.785156h-224.105469l-20.015625 83.800781zm0 0" fill="#87a0af"/><path d="m256 .5h-224.105469v63.785156l224.105469 20.015625zm0 0" fill="#b4d2d7"/><path d="m480.105469 64.285156h-224.105469l-20.015625 234.351563 244.121094-20.015625zm0 0" fill="#03232e"/><path d="m31.894531 64.285156v214.335938l224.105469 20.015625v-234.351563zm0 0" fill="#07485e"/><path d="m480.105469 278.621094h-224.105469l-20.015625 83.800781 244.121094-20.015625zm0 0" fill="#87a0af"/><path d="m31.894531 278.621094v63.785156l224.105469 20.015625v-83.800781zm0 0" fill="#b4d2d7"/><path d="m432.269531 124.558594h-176.269531l-10.007812 15 10.007812 15h176.269531zm0 0" fill="#efe2dd"/><path d="m432.269531 188.34375h-176.269531l-10.007812 15 10.007812 15h176.269531zm0 0" fill="#efe2dd"/><path d="m512 342.40625h-256l-20.015625 31.890625 20.015625 31.894531h256zm0 0" fill="#b4d2d7"/><path d="m0 342.40625h256v63.785156h-256zm0 0" fill="#e1ebf0"/><path d="m79.730469 154.558594h32.839843v64.730468h30v-64.730468h32.839844v-30h-95.679687zm0 0" fill="#96f2eb"/><g fill="#fff5f5"><path d="m207.304688 124.558594h48.695312v30h-48.695312zm0 0"/><path d="m207.304688 188.34375h48.695312v30h-48.695312zm0 0"/></g></svg>