<svg height="512pt" viewBox="0 0 512 512" width="512pt" xmlns="http://www.w3.org/2000/svg"><path d="m341.046875 497v-63.785156l-105.0625-20.015625 20.015625 83.800781zm0 0" fill="#87a0af"/><path d="m170.953125 497h85.046875v-83.800781l-85.046875 20.015625zm0 0" fill="#b4d2d7"/><path d="m256 70.929688-20.015625 297.253906 276.015625-20.015625v-277.238281zm0 0" fill="#03232e"/><path d="m256 70.929688h-256v277.238281l256 20.015625zm0 0" fill="#07485e"/><path d="m388.886719 512v-30h-132.886719l-10.007812 15 10.007812 15zm0 0" fill="#b4d2d7"/><path d="m123.113281 482h132.886719v30h-132.886719zm0 0" fill="#e1ebf0"/><path d="m256 433.214844h256v-85.046875h-256l-20.015625 42.523437zm0 0" fill="#b4d2d7"/><path d="m0 348.167969h256v85.046875h-256zm0 0" fill="#e1ebf0"/><path d="m256 0-20.015625 114.71875 20.015625 172.878906s114.71875-73.46875 114.71875-172.878906c0-63.253906-51.460938-114.71875-114.71875-114.71875zm0 0" fill="#ff3939"/><path d="m141.28125 114.71875c0 99.40625 114.703125 172.867188 114.71875 172.878906v-287.597656c-63.257812 0-114.71875 51.464844-114.71875 114.71875zm0 0" fill="#ff8859"/><path d="m256 61.867188-20.015625 52.851562 20.015625 52.855469c29.144531 0 52.851562-23.710938 52.851562-52.855469 0-29.140625-23.707031-52.851562-52.851562-52.851562zm0 0" fill="#efe2dd"/><path d="m203.148438 114.71875c0 29.144531 23.707031 52.855469 52.851562 52.855469v-105.707031c-29.144531 0-52.851562 23.710937-52.851562 52.851562zm0 0" fill="#fff5f5"/></svg>