<svg height="512pt" viewBox="0 -35 512 512" width="512pt" xmlns="http://www.w3.org/2000/svg"><path d="m341.046875 426.070312v-63.789062l-105.0625-20.015625 20.015625 83.804687zm0 0" fill="#87a0af"/><path d="m170.953125 426.070312h85.046875v-83.804687l-85.046875 20.015625zm0 0" fill="#b4d2d7"/><path d="m256 0-20.015625 297.253906 276.015625-20.019531v-277.234375zm0 0" fill="#03232e"/><path d="m256 0h-256v277.234375l256 20.019531zm0 0" fill="#07485e"/><path d="m47.839844 123.617188h128.429687v30h-128.429687zm0 0" fill="#96f2eb"/><path d="m47.839844 187.402344h128.429687v30h-128.429687zm0 0" fill="#ffda44"/><path d="m47.839844 59.832031h128.429687v30h-128.429687zm0 0" fill="#96f2eb"/><path d="m388.886719 441.066406v-30h-132.886719l-10.007812 15 10.007812 15zm0 0" fill="#b4d2d7"/><path d="m123.113281 411.066406h132.886719v30h-132.886719zm0 0" fill="#e1ebf0"/><path d="m256 362.28125h256v-85.046875h-256l-20.015625 42.527344zm0 0" fill="#b4d2d7"/><path d="m0 277.234375h256v85.046875h-256zm0 0" fill="#e1ebf0"/><path d="m463.214844 59.832031h-207.214844l-20.015625 78.785157 20.015625 78.785156h207.214844zm0 0" fill="#15ccc2"/><path d="m209.105469 59.832031h46.894531v157.570313h-46.894531zm0 0" fill="#6fe8d5"/></svg>