<svg height="512pt" viewBox="-43 0 512 512" width="512pt" xmlns="http://www.w3.org/2000/svg"><path d="m251.164062 15h-36.121093l-20.015625 97.605469 56.136718-20.015625zm0 0" fill="#87a0af"/><path d="m178.925781 15v77.589844l36.117188 20.015625v-97.605469zm0 0" fill="#b4d2d7"/><path d="m297.601562 0h-82.558593l-10.007813 15 10.007813 15h82.558593zm0 0" fill="#07485e"/><path d="m132.488281 0h82.554688v30h-82.554688zm0 0" fill="#0b799d"/><path d="m215.042969 89.511719-20.015625 211.246093 20.015625 211.242188c116.667969 0 211.246093-94.578125 211.246093-211.242188 0-116.667968-94.578124-211.246093-211.246093-211.246093zm0 0" fill="#b4d2d7"/><path d="m43.78125 85.710938 90.039062 90.039062-43.78125 43.78125-90.039062-90.039062zm0 0" fill="#0b799d"/><path d="m3.800781 300.757812c0 116.664063 94.578125 211.242188 211.242188 211.242188v-422.488281c-116.664063 0-211.242188 94.578125-211.242188 211.246093zm0 0" fill="#e1ebf0"/><path d="m195.027344 280.738281 20.015625 181.773438c89.191406 0 161.757812-72.5625 161.757812-161.753907zm0 0" fill="#efe2dd"/><path d="m376.800781 300.757812c0-89.195312-72.5625-161.757812-161.757812-161.757812l-20.015625 161.757812zm0 0" fill="#ff9f22"/><path d="m215.042969 139c-89.191407 0-161.753907 72.5625-161.753907 161.757812 0 89.191407 72.5625 161.753907 161.753907 161.753907zm0 0" fill="#fff5f5"/></svg>