<svg height="512pt" viewBox="0 0 512 512.001" width="512pt" xmlns="http://www.w3.org/2000/svg"><path d="m207.214844 176.257812h-30v-39.773437c0-36.691406 29.851562-66.542969 66.542968-66.542969 20.152344 0 36.546876-16.394531 36.546876-36.546875v-33.394531h30v33.394531c0 36.695313-29.851563 66.546875-66.546876 66.546875-20.148437 0-36.542968 16.394532-36.542968 36.542969zm0 0" fill="#03232e"/><path d="m480.109375 128.429688-20.019531 307.910156 51.910156-20.019532v-256zm0 0" fill="#07485e"/><path d="m480.109375 128.429688-31.894531 31.890624v256l31.894531 20.019532zm0 0" fill="#0b799d"/><path d="m480.109375 512c17.613281 0 31.890625-14.277344 31.890625-31.894531v-63.785157h-31.890625l-20.019531 40.679688zm0 0" fill="#03232e"/><path d="m448.214844 416.320312v63.789063c0 17.613281 14.28125 31.890625 31.894531 31.890625v-95.675781h-31.894531zm0 0" fill="#07485e"/><path d="m384.429688 161.242188h-192.214844l-20.015625 164.425781 20.015625 155.359375h192.214844zm0 0" fill="#07485e"/><path d="m63.785156 161.242188-20.015625 163.757812 20.015625 156.027344h128.429688v-319.785156zm0 0" fill="#0b799d"/><path d="m0 161.242188h63.785156v319.785156h-63.785156zm0 0" fill="#07485e"/></svg>