<svg height="512pt" viewBox="-29 0 512 512" width="512pt" xmlns="http://www.w3.org/2000/svg"><path d="m366.429688 0h-139.207032l-20.015625 224.574219 20.015625 287.425781c136.710938-51.46875 227.222656-181.195312 227.222656-327.273438v-96.707031c-43.34375-10.574219-77.445312-44.675781-88.015624-88.019531zm0 0" fill="#1862bf"/><path d="m88.019531 0c-10.574219 43.34375-44.675781 77.445312-88.019531 88.019531v96.707031c0 146.078126 90.515625 275.804688 227.222656 327.273438v-512zm0 0" fill="#5697e5"/><path d="m154.925781 310.746094-67.808593-86.171875 67.808593-86.175781 23.578125 18.550781-53.210937 67.625 53.210937 67.621093zm0 0" fill="#fff5f5"/><path d="m299.523438 310.746094-23.578126-18.550782 53.210938-67.621093-53.210938-67.625 23.578126-18.550781 67.804687 86.175781zm0 0" fill="#efe2dd"/><path d="m212.222656 138.421875h30v172.304687h-30zm0 0" fill="#fff5f5"/></svg>