<svg height="512pt" viewBox="-106 0 512 512" width="512pt" xmlns="http://www.w3.org/2000/svg"><path d="m149.691406 0-20.015625 83.800781 169.707031-20.015625v-63.785156zm0 0" fill="#07485e"/><path d="m149.691406 0h-149.691406v63.785156l149.691406 20.015625zm0 0" fill="#0b799d"/><path d="m129.675781 404.445312 169.707031-20.015624v-320.644532h-149.691406zm0 0" fill="#03232e"/><path d="m149.691406 63.785156h-149.691406v320.644532l149.691406 20.015624zm0 0" fill="#07485e"/><path d="m149.691406 512h149.691406v-127.570312h-149.691406l-20.015625 63.785156zm0 0" fill="#07485e"/><path d="m0 384.429688h149.691406v127.570312h-149.691406zm0 0" fill="#0b799d"/><path d="m128.429688 433.214844h42.523437v30h-42.523437zm0 0" fill="#e1ebf0"/><path d="m251.542969 271.171875v-30h-101.851563l-10.007812 15 10.007812 15zm0 0" fill="#5697e5"/><path d="m251.542969 335.300781v-30h-101.851563l-10.007812 15 10.007812 15zm0 0" fill="#15ccc2"/><path d="m251.542969 112.914062h-101.851563l-20.015625 47.0625 20.015625 47.066407h101.851563zm0 0" fill="#7ed8f6"/><path d="m47.839844 241.171875h101.851562v30h-101.851562zm0 0" fill="#96f2eb"/><path d="m47.839844 305.300781h101.851562v30h-101.851562zm0 0" fill="#6fe8d5"/><path d="m47.839844 112.914062h101.851562v94.128907h-101.851562zm0 0" fill="#beebfa"/></svg>