<svg height="512pt" viewBox="0 -39 512 512" width="512pt" xmlns="http://www.w3.org/2000/svg"><path d="m267.488281 310.023438-133.539062-152.023438h-.203125l-20.015625 142.199219 20.015625 91.679687h133.742187zm0 0" fill="#1862bf"/><path d="m0 158v233.878906h24.347656l42.523438 42.523438 42.523437-42.523438h24.351563v-233.878906zm0 0" fill="#5697e5"/><path d="m322.976562 0-20.015624 158 20.015624 152.023438h51.988282l42.523437 42.523437 42.523438-42.523437h51.988281v-310.023438zm0 0" fill="#efe2dd"/><path d="m133.949219 0h189.023437v310.023438h-189.023437zm0 0" fill="#fff5f5"/><path d="m395.148438 241.027344-23.578126-18.550782 53.085938-67.464843-53.085938-67.464844 23.578126-18.550781 67.679687 86.015625zm0 0" fill="#07485e"/><g fill="#0b799d"><path d="m250.804688 241.027344-67.683594-86.015625 67.683594-86.015625 23.574218 18.550781-53.085937 67.464844 53.085937 67.464843zm0 0"/><path d="m307.976562 69.039062h30v171.945313h-30zm0 0"/></g></svg>