<svg height="512pt" viewBox="0 0 512 512.00025" width="512pt" xmlns="http://www.w3.org/2000/svg"><path d="m164.765625 290.910156-153.101563 153.101563c-15.550781 15.554687-15.550781 40.769531 0 56.324219 15.554688 15.554687 40.769532 15.554687 56.324219 0l153.101563-153.101563zm0 0" fill="#1862bf"/><path d="m301.597656 0-53.042968 211.164062 53.042968 209.636719c53.902344 0 107.808594-20.515625 148.847656-61.554687 82.074219-82.074219 82.074219-215.617188 0-297.691406-41.039062-41.035157-94.941406-61.554688-148.847656-61.554688zm0 0" fill="#1862bf"/><path d="m152.75 61.554688c-82.070312 82.074218-82.070312 215.621093.003906 297.691406 41.035156 41.039062 94.941406 61.558594 148.84375 61.558594v-420.804688c-53.90625 0-107.808594 20.519531-148.847656 61.554688zm0 0" fill="#5697e5"/><path d="m301.597656 372.03125c41.410156 0 82.820313-15.761719 114.34375-47.285156 63.046875-63.050782 63.046875-165.636719 0-228.6875-31.523437-31.523438-72.933594-47.285156-114.34375-47.285156l-16.972656 160.976562zm0 0" fill="#efe2dd"/><path d="m187.253906 96.058594c-63.046875 63.050781-63.046875 165.636718 0 228.6875 31.527344 31.523437 72.933594 47.285156 114.34375 47.285156v-323.257812c-41.410156 0-82.820312 15.761718-114.34375 47.285156zm0 0" fill="#fff5f5"/><path d="m316.601562 141.726562-.003906-30.179687h-15l-11.253906 43.957031 11.253906 14.585938c10.328125 0 20.652344 3.933594 28.515625 11.796875 15.722657 15.722656 15.722657 41.308593 0 57.03125-7.863281 7.863281-18.191406 11.796875-28.515625 11.796875l-10.386718 13.71875 10.386718 44.824218h15v-30.179687c8.042969-1.742187 15.832032-4.902344 22.972656-9.484375l21.316407 21.316406 21.21875-21.214844-21.316407-21.316406c4.582032-7.140625 7.738282-14.933594 9.484376-22.976562h30.175781v-30.003906h-30.175781c-1.746094-8.042969-4.902344-15.835938-9.484376-22.972657l21.316407-21.316406-21.21875-21.21875-21.316407 21.316406c-7.136718-4.578125-14.925781-7.738281-22.96875-9.480469zm0 0" fill="#87a0af"/><path d="m273.082031 238.917969c-15.726562-15.722657-15.726562-41.308594-.003906-57.035157 7.863281-7.863281 18.191406-11.792968 28.519531-11.792968v-58.542969h-15.003906v30.179687c-8.042969 1.742188-15.832031 4.898438-22.972656 9.480469l-21.316406-21.316406-21.21875 21.21875 21.316406 21.316406c-4.582032 7.140625-7.738282 14.929688-9.480469 22.972657h-30.179687v30.003906h30.179687c1.742187 8.042968 4.902344 15.835937 9.484375 22.972656l-21.316406 21.320312 21.214844 21.214844 21.316406-21.316406c7.140625 4.582031 14.929687 7.742188 22.972656 9.484375v30.179687h15.003906v-58.546874c-10.328125 0-20.65625-3.929688-28.515625-11.792969zm0 0" fill="#b4d2d7"/></svg>