<svg height="512pt" viewBox="-78 0 512 512" width="512pt" xmlns="http://www.w3.org/2000/svg"><path d="m290.03125 163.191406v-88.144531l-132.503906-20.015625v401.9375l132.503906-20.015625v-88.144531c0-38.535156-19.375-72.535156-48.914062-92.808594 29.539062-20.273438 48.914062-54.273438 48.914062-92.808594zm0 0" fill="#efe2dd"/><path d="m65.054688 75.046875v88.144531c0 38.535156 19.375 72.535156 48.914062 92.808594-29.539062 20.273438-48.914062 54.277344-48.914062 92.808594v88.144531l112.488281 20.015625v-401.9375zm0 0" fill="#fff5f5"/><path d="m255.03125 461.953125v-113.191406c0-42.730469-34.761719-77.492188-77.488281-77.492188l-20.015625 210.699219zm0 0" fill="#15ccc2"/><path d="m100.054688 348.761719v113.191406l77.488281 20.015625v-210.699219c-42.730469 0-77.488281 34.761719-77.488281 77.492188zm0 0" fill="#6fe8d5"/><path d="m255.03125 163.191406v-40.132812h-77.488281l-20.015625 47.941406 20.015625 69.683594c42.730469 0 77.488281-34.761719 77.488281-77.492188zm0 0" fill="#15ccc2"/><path d="m100.054688 123.058594v40.132812c0 42.730469 34.761718 77.492188 77.488281 77.492188v-117.625zm0 0" fill="#6fe8d5"/><path d="m325.0625 15h-167.535156l20.015625 60.046875h147.519531zm0 0" fill="#07485e"/><path d="m30.023438 15h147.519531v60.046875h-147.519531zm0 0" fill="#0b799d"/><path d="m325.0625 497v-60.046875h-147.519531l-20.015625 60.046875zm0 0" fill="#07485e"/><path d="m30.023438 436.953125h147.519531v60.046875h-147.519531zm0 0" fill="#0b799d"/><path d="m355.085938 0h-177.542969l-10.007813 15 10.007813 15h177.542969zm0 0" fill="#03232e"/><path d="m355.085938 512v-30h-177.542969l-10.007813 15 10.007813 15zm0 0" fill="#03232e"/><g fill="#07485e"><path d="m0 0h177.542969v30h-177.542969zm0 0"/><path d="m0 482h177.542969v30h-177.542969zm0 0"/></g></svg>