<svg height="512pt" viewBox="0 0 512 512" width="512pt" xmlns="http://www.w3.org/2000/svg"><path d="m241 243.945312h30v182.308594h-30zm0 0" fill="#87a0af"/><path d="m427.445312 111.300781c-1.398437-61.703125-51.816406-111.300781-113.855468-111.300781-21.015625 0-40.691406 5.707031-57.589844 15.636719l-20.015625 164.363281 20.015625 105.769531h168.730469c48.199219 0 87.269531-39.070312 87.269531-87.269531 0-47.285156-37.617188-85.761719-84.554688-87.199219zm0 0" fill="#efe2dd"/><path d="m230.191406 36.351562c-14.734375-9.464843-32.25-14.976562-51.0625-14.976562-50.6875 0-92.0625 39.847656-94.519531 89.921875-46.964844 1.414063-84.609375 39.898437-84.609375 87.203125 0 48.195312 39.070312 87.269531 87.269531 87.269531h168.730469v-270.132812c-9.585938 5.632812-18.28125 12.625-25.808594 20.714843zm0 0" fill="#fff5f5"/><path d="m415.464844 512v-127.570312h-159.464844l-20.015625 63.785156 20.015625 63.785156zm0 0" fill="#b4d2d7"/><path d="m96.535156 384.429688h159.464844v127.570312h-159.464844zm0 0" fill="#e1ebf0"/><path d="m144.375 433.214844h31.894531v30h-31.894531zm0 0" fill="#0b799d"/><path d="m208.160156 433.214844h31.894532v30h-31.894532zm0 0" fill="#0b799d"/><g fill="#07485e"><path d="m271.945312 433.214844h31.894532v30h-31.894532zm0 0"/><path d="m335.730469 433.214844h31.894531v30h-31.894531zm0 0"/></g></svg>