<svg height="512pt" viewBox="-64 0 512 512" width="512pt" xmlns="http://www.w3.org/2000/svg"><path d="m383.671875 0h-191.835937l-20.015626 231.003906 20.015626 280.996094h191.835937zm0 0" fill="#07485e"/><path d="m0 0h191.835938v512h-191.835938zm0 0" fill="#0b799d"/><path d="m334.886719 49.542969h-143.050781l-20.015626 72.714843 20.015626 52.703126h143.050781zm0 0" fill="#15ccc2"/><path d="m48.785156 49.542969h143.050782v125.417969h-143.050782zm0 0" fill="#6fe8d5"/><path d="m217.160156 276.054688 22.359375 172.160156h95.367188v-148.808594zm0 0" fill="#ff3939"/><path d="m271.566406 97.25h-79.730468l-10.007813 15 10.007813 15h79.730468zm0 0" fill="#07485e"/><path d="m112.105469 97.25h79.730469v30h-79.730469zm0 0" fill="#0b799d"/><path d="m121.789062 350.460938 22.363282 97.753906h95.367187v-74.40625zm0 0" fill="#fff5f5"/><path d="m239.519531 373.808594v-74.402344l-117.730469-23.351562 22.363282 97.753906zm0 0" fill="#cdbfba"/><path d="m334.886719 299.40625v-74.40625h-95.367188l-22.359375 37.203125 22.359375 37.203125zm0 0" fill="#cdbfba"/><path d="m239.519531 299.40625v-74.40625h-95.367187l-22.363282 37.203125 22.363282 37.203125zm0 0" fill="#fff5f5"/><path d="m48.785156 373.808594v74.40625h95.367188v-97.753906zm0 0" fill="#cdbfba"/><path d="m144.152344 276.054688-95.367188 23.351562v74.402344h95.367188zm0 0" fill="#fff5f5"/><path d="m48.785156 225h95.367188v74.40625h-95.367188zm0 0" fill="#ff8859"/></svg>