<svg height="512.00029pt" viewBox="0 0 512.00029 512.00029" width="512.00029pt" xmlns="http://www.w3.org/2000/svg"><path d="m20.304688 491.695312 20.304687 20.304688s210.9375-128.664062 303.8125-242.183594l-51.117187-81.34375zm0 0" fill="#c78f2c"/><path d="m242.183594 167.582031c-113.519532 92.875-242.183594 303.808594-242.183594 303.808594l20.304688 20.304687 291.359374-291.359374zm0 0" fill="#e7c598"/><path d="m344.421875 269.816406c26.214844-32.046875 43.03125-62.886718 43.03125-89.285156l-27.992187-51.722656-66.15625 89.890625zm0 0" fill="#e7c598"/><path d="m242.183594 167.582031 51.117187 51.117188 85.03125-85.03125-46.863281-9.121094c-26.398438 0-57.238281 16.816406-89.285156 43.035156zm0 0" fill="#f3e2c2"/><path d="m507.792969 4.207031-102.125 67.460938-46.207031 80.871093 27.992187 27.992188c76.066406-4.871094 132.496094-72.53125 123.628906-148.238281zm0 0" fill="#ff3939"/><path d="m479.710938.917969c-75.707032-8.867188-143.371094 47.5625-148.242188 123.628906l27.992188 27.992187 148.332031-148.332031zm0 0" fill="#ff8859"/></svg>