<svg height="512pt" viewBox="0 0 512 512" width="512pt" xmlns="http://www.w3.org/2000/svg"><path d="m95.679688 512h416.320312v-191.355469h-185.335938l-176.996093 49.023438zm0 0" fill="#07485e"/><path d="m163.332031 483.976562 294.386719-294.382812-135.3125-135.3125-131.050781 131.054688-98.160157 144.300781zm0 0" fill="#5697e5"/><path d="m95.679688 384.378906c17.640624 0 31.941406 14.300782 31.941406 31.945313 0 17.640625-14.300782 31.941406-31.941406 31.941406l-20.019532 29.40625 20.019532 34.328125c52.839843 0 95.675781-42.835938 95.675781-95.679688v-139.917968l-115.695313-20.015625zm0 0" fill="#cdbfba"/><path d="m95.679688 448.265625c-17.644532 0-31.945313-14.300781-31.945313-31.941406 0-17.644531 14.300781-31.945313 31.945313-31.945313v-127.992187l-95.679688 20.015625v139.917968c0 52.84375 42.835938 95.679688 95.679688 95.679688zm0 0" fill="#efe2dd"/><path d="m95.679688 276.402344h95.675781v-92.132813l-115.695313-20.015625zm0 0" fill="#1862bf"/><path d="m95.679688 164.253906-95.679688 20.015625v92.132813h95.679688zm0 0" fill="#5697e5"/><path d="m95.679688 184.269531h95.675781v-92.132812l-115.695313-20.019531zm0 0" fill="#15ccc2"/><path d="m95.679688 72.117188-95.679688 20.019531v92.132812h95.679688zm0 0" fill="#6fe8d5"/><path d="m95.679688 0-20.019532 46.066406 20.019532 46.070313h95.675781v-92.136719zm0 0" fill="#ff3939"/><path d="m0 0h95.679688v92.136719h-95.679688zm0 0" fill="#ff8859"/></svg>