<svg height="512pt" viewBox="-47 0 511 512" width="512pt" xmlns="http://www.w3.org/2000/svg"><path d="m208.660156 512h208.160156v-127.570312l-228.175781-20.015626zm0 0" fill="#07485e"/><path d="m.5 384.429688v127.570312h208.160156v-147.585938zm0 0" fill="#0b799d"/><path d="m187.398438 433.214844h42.523437v30h-42.523437zm0 0" fill="#e1ebf0"/><path d="m208.660156 0-20.015625 192.214844 20.015625 192.214844h208.160156v-384.429688zm0 0" fill="#03232e"/><path d="m.5 0h208.160156v384.429688h-208.160156zm0 0" fill="#07485e"/><path d="m136.488281 278.230469-67.679687-86.015625 67.679687-86.015625 23.578125 18.550781-53.085937 67.464844 53.085937 67.464844zm0 0" fill="#96f2eb"/><path d="m280.832031 278.230469-23.574219-18.550781 53.085938-67.464844-53.085938-67.464844 23.574219-18.550781 67.683594 86.015625zm0 0" fill="#5697e5"/><path d="m193.660156 106.242188h30v171.945312h-30zm0 0" fill="#96f2eb"/></svg>